<?xml version="1.0" encoding="utf-8" standalone="no"?>
<!DOCTYPE svg PUBLIC "-//W3C//DTD SVG 1.1//EN"
  "http://www.w3.org/Graphics/SVG/1.1/DTD/svg11.dtd">
<svg xmlns:xlink="http://www.w3.org/1999/xlink" width="860.014844pt" height="468.741881pt" viewBox="0 0 860.014844 468.741881" xmlns="http://www.w3.org/2000/svg" version="1.1">
 <metadata>
  <rdf:RDF xmlns:dc="http://purl.org/dc/elements/1.1/" xmlns:cc="http://creativecommons.org/ns#" xmlns:rdf="http://www.w3.org/1999/02/22-rdf-syntax-ns#">
   <cc:Work>
    <dc:type rdf:resource="http://purl.org/dc/dcmitype/StillImage"/>
    <dc:date>2026-07-22T13:41:15.776328</dc:date>
    <dc:format>image/svg+xml</dc:format>
    <dc:creator>
     <cc:Agent>
      <dc:title>Matplotlib v3.9.4, https://matplotlib.org/</dc:title>
     </cc:Agent>
    </dc:creator>
   </cc:Work>
  </rdf:RDF>
 </metadata>
 <defs>
  <style type="text/css">*{stroke-linejoin: round; stroke-linecap: butt}</style>
 </defs>
 <g id="figure_1">
  <g id="patch_1">
   <path d="M -0 468.741881 
L 860.014844 468.741881 
L 860.014844 0 
L -0 0 
z
" style="fill: #ffffff"/>
  </g>
  <g id="axes_1">
   <g id="patch_2">
    <path d="M 202.75375 394.597969 
L 746.49775 394.597969 
L 746.49775 21.637969 
L 202.75375 21.637969 
z
" style="fill: #ffffff"/>
   </g>
   <g id="line2d_1">
    <path d="M 606.677864 394.597969 
L 606.677864 21.637969 
" clip-path="url(#pc474516180)" style="fill: none; stroke: #262626; stroke-width: 1.2; stroke-linecap: square"/>
   </g>
   <g id="matplotlib.axis_1">
    <g id="xtick_1">
     <g id="line2d_2">
      <path d="M 218.289293 394.597969 
L 218.289293 21.637969 
" clip-path="url(#pc474516180)" style="fill: none; stroke: #d8dadd; stroke-opacity: 0.8; stroke-width: 0.8; stroke-linecap: square"/>
     </g>
     <g id="line2d_3">
      <defs>
       <path id="m398c0b380d" d="M 0 0 
L 0 3.5 
" style="stroke: #000000; stroke-width: 0.8"/>
      </defs>
      <g>
       <use xlink:href="#m398c0b380d" x="218.289293" y="394.597969" style="stroke: #000000; stroke-width: 0.8"/>
      </g>
     </g>
     <g id="text_1">
      <text style="font: 10px 'DejaVu Sans'; text-anchor: middle" x="218.289293" y="409.196406" transform="rotate(-0 218.289293 409.196406)">−50</text>
     </g>
    </g>
    <g id="xtick_2">
     <g id="line2d_4">
      <path d="M 295.967007 394.597969 
L 295.967007 21.637969 
" clip-path="url(#pc474516180)" style="fill: none; stroke: #d8dadd; stroke-opacity: 0.8; stroke-width: 0.8; stroke-linecap: square"/>
     </g>
     <g id="line2d_5">
      <g>
       <use xlink:href="#m398c0b380d" x="295.967007" y="394.597969" style="stroke: #000000; stroke-width: 0.8"/>
      </g>
     </g>
     <g id="text_2">
      <text style="font: 10px 'DejaVu Sans'; text-anchor: middle" x="295.967007" y="409.196406" transform="rotate(-0 295.967007 409.196406)">−40</text>
     </g>
    </g>
    <g id="xtick_3">
     <g id="line2d_6">
      <path d="M 373.644721 394.597969 
L 373.644721 21.637969 
" clip-path="url(#pc474516180)" style="fill: none; stroke: #d8dadd; stroke-opacity: 0.8; stroke-width: 0.8; stroke-linecap: square"/>
     </g>
     <g id="line2d_7">
      <g>
       <use xlink:href="#m398c0b380d" x="373.644721" y="394.597969" style="stroke: #000000; stroke-width: 0.8"/>
      </g>
     </g>
     <g id="text_3">
      <text style="font: 10px 'DejaVu Sans'; text-anchor: middle" x="373.644721" y="409.196406" transform="rotate(-0 373.644721 409.196406)">−30</text>
     </g>
    </g>
    <g id="xtick_4">
     <g id="line2d_8">
      <path d="M 451.322436 394.597969 
L 451.322436 21.637969 
" clip-path="url(#pc474516180)" style="fill: none; stroke: #d8dadd; stroke-opacity: 0.8; stroke-width: 0.8; stroke-linecap: square"/>
     </g>
     <g id="line2d_9">
      <g>
       <use xlink:href="#m398c0b380d" x="451.322436" y="394.597969" style="stroke: #000000; stroke-width: 0.8"/>
      </g>
     </g>
     <g id="text_4">
      <text style="font: 10px 'DejaVu Sans'; text-anchor: middle" x="451.322436" y="409.196406" transform="rotate(-0 451.322436 409.196406)">−20</text>
     </g>
    </g>
    <g id="xtick_5">
     <g id="line2d_10">
      <path d="M 529.00015 394.597969 
L 529.00015 21.637969 
" clip-path="url(#pc474516180)" style="fill: none; stroke: #d8dadd; stroke-opacity: 0.8; stroke-width: 0.8; stroke-linecap: square"/>
     </g>
     <g id="line2d_11">
      <g>
       <use xlink:href="#m398c0b380d" x="529.00015" y="394.597969" style="stroke: #000000; stroke-width: 0.8"/>
      </g>
     </g>
     <g id="text_5">
      <text style="font: 10px 'DejaVu Sans'; text-anchor: middle" x="529.00015" y="409.196406" transform="rotate(-0 529.00015 409.196406)">−10</text>
     </g>
    </g>
    <g id="xtick_6">
     <g id="line2d_12">
      <path d="M 606.677864 394.597969 
L 606.677864 21.637969 
" clip-path="url(#pc474516180)" style="fill: none; stroke: #d8dadd; stroke-opacity: 0.8; stroke-width: 0.8; stroke-linecap: square"/>
     </g>
     <g id="line2d_13">
      <g>
       <use xlink:href="#m398c0b380d" x="606.677864" y="394.597969" style="stroke: #000000; stroke-width: 0.8"/>
      </g>
     </g>
     <g id="text_6">
      <text style="font: 10px 'DejaVu Sans'; text-anchor: middle" x="606.677864" y="409.196406" transform="rotate(-0 606.677864 409.196406)">0</text>
     </g>
    </g>
    <g id="xtick_7">
     <g id="line2d_14">
      <path d="M 684.355579 394.597969 
L 684.355579 21.637969 
" clip-path="url(#pc474516180)" style="fill: none; stroke: #d8dadd; stroke-opacity: 0.8; stroke-width: 0.8; stroke-linecap: square"/>
     </g>
     <g id="line2d_15">
      <g>
       <use xlink:href="#m398c0b380d" x="684.355579" y="394.597969" style="stroke: #000000; stroke-width: 0.8"/>
      </g>
     </g>
     <g id="text_7">
      <text style="font: 10px 'DejaVu Sans'; text-anchor: middle" x="684.355579" y="409.196406" transform="rotate(-0 684.355579 409.196406)">10</text>
     </g>
    </g>
    <g id="text_8">
     <text style="font: 10px 'DejaVu Sans'; text-anchor: middle" x="474.62575" y="422.874531" transform="rotate(-0 474.62575 422.874531)">Accuracy change (percentage points; treatment − reference)   ← damage</text>
    </g>
   </g>
   <g id="matplotlib.axis_2">
    <g id="ytick_1">
     <g id="line2d_16"/>
     <g id="text_9">
      <text style="font: 10px 'DejaVu Sans'; text-anchor: end" x="194.75375" y="63.830129" transform="rotate(-0 194.75375 63.830129)">Two-hop: J − clean</text>
     </g>
    </g>
    <g id="ytick_2">
     <g id="line2d_17"/>
     <g id="text_10">
      <text style="font: 10px 'DejaVu Sans'; text-anchor: end" x="194.75375" y="91.253658" transform="rotate(-0 194.75375 91.253658)">Two-hop: J − matched mean</text>
     </g>
    </g>
    <g id="ytick_3">
     <g id="line2d_18"/>
     <g id="text_11">
      <text style="font: 10px 'DejaVu Sans'; text-anchor: end" x="194.75375" y="151.585423" transform="rotate(-0 194.75375 151.585423)">GSM8K direct: J − clean</text>
     </g>
    </g>
    <g id="ytick_4">
     <g id="line2d_19"/>
     <g id="text_12">
      <text style="font: 10px 'DejaVu Sans'; text-anchor: end" x="194.75375" y="179.008952" transform="rotate(-0 194.75375 179.008952)">GSM8K CoT: J − clean</text>
     </g>
    </g>
    <g id="ytick_5">
     <g id="line2d_20"/>
     <g id="text_13">
      <text style="font: 10px 'DejaVu Sans'; text-anchor: end" x="194.75375" y="206.432482" transform="rotate(-0 194.75375 206.432482)">MATH-500 direct: J − clean</text>
     </g>
    </g>
    <g id="ytick_6">
     <g id="line2d_21"/>
     <g id="text_14">
      <text style="font: 10px 'DejaVu Sans'; text-anchor: end" x="194.75375" y="233.856011" transform="rotate(-0 194.75375 233.856011)">MATH-500 CoT: J − clean</text>
     </g>
    </g>
    <g id="ytick_7">
     <g id="line2d_22"/>
     <g id="text_15">
      <text style="font: 10px 'DejaVu Sans'; text-anchor: end" x="194.75375" y="294.187776" transform="rotate(-0 194.75375 294.187776)">GSM-Symbolic: J − clean</text>
     </g>
    </g>
    <g id="ytick_8">
     <g id="line2d_23"/>
     <g id="text_16">
      <text style="font: 10px 'DejaVu Sans'; text-anchor: end" x="194.75375" y="321.611305" transform="rotate(-0 194.75375 321.611305)">GSM-Symbolic: J − matched</text>
     </g>
    </g>
    <g id="ytick_9">
     <g id="line2d_24"/>
     <g id="text_17">
      <text style="font: 10px 'DejaVu Sans'; text-anchor: end" x="194.75375" y="349.034835" transform="rotate(-0 194.75375 349.034835)">AST-oracle masked L19–28 − clean</text>
     </g>
    </g>
    <g id="ytick_10">
     <g id="line2d_25"/>
     <g id="text_18">
      <text style="font: 10px 'DejaVu Sans'; text-anchor: end" x="194.75375" y="376.458364" transform="rotate(-0 194.75375 376.458364)">AST-oracle masked L23–31 − clean</text>
     </g>
    </g>
   </g>
   <g id="patch_3">
    <path d="M 202.75375 394.597969 
L 746.49775 394.597969 
" style="fill: none; stroke: #6b7280; stroke-width: 0.8; stroke-linejoin: miter; stroke-linecap: square"/>
   </g>
   <g id="LineCollection_1">
    <path d="M 237.708721 60.03091 
L 470.741864 60.03091 
" clip-path="url(#pc474516180)" style="fill: none; stroke: #d55e00; stroke-width: 2"/>
   </g>
   <g id="line2d_26">
    <defs>
     <path id="mcdeac8eda5" d="M 0 3.5 
L 0 -3.5 
" style="stroke: #d55e00"/>
    </defs>
    <g clip-path="url(#pc474516180)">
     <use xlink:href="#mcdeac8eda5" x="237.708721" y="60.03091" style="fill: #d55e00; stroke: #d55e00"/>
    </g>
   </g>
   <g id="line2d_27">
    <g clip-path="url(#pc474516180)">
     <use xlink:href="#mcdeac8eda5" x="470.741864" y="60.03091" style="fill: #d55e00; stroke: #d55e00"/>
    </g>
   </g>
   <g id="text_19">
    <g id="patch_4">
     <path d="M 631.850496 65.376066 
L 739.33159 65.376066 
L 739.33159 54.685754 
L 631.850496 54.685754 
z
" style="fill: #ffffff"/>
    </g>
    <text style="fill: #262626; font: 9px 'DejaVu Sans'; text-anchor: end" x="738.34159" y="62.514347" transform="rotate(-0 738.34159 62.514347)">-32.50  [-47.50, -17.50]</text>
   </g>
   <g id="LineCollection_2">
    <path d="M 328.591647 87.454439 
L 515.794939 87.454439 
" clip-path="url(#pc474516180)" style="fill: none; stroke: #d55e00; stroke-width: 2"/>
   </g>
   <g id="line2d_28">
    <g clip-path="url(#pc474516180)">
     <use xlink:href="#mcdeac8eda5" x="328.591647" y="87.454439" style="fill: #d55e00; stroke: #d55e00"/>
    </g>
   </g>
   <g id="line2d_29">
    <g clip-path="url(#pc474516180)">
     <use xlink:href="#mcdeac8eda5" x="515.794939" y="87.454439" style="fill: #d55e00; stroke: #d55e00"/>
    </g>
   </g>
   <g id="text_20">
    <g id="patch_5">
     <path d="M 631.850496 92.799596 
L 739.33159 92.799596 
L 739.33159 82.109283 
L 631.850496 82.109283 
z
" style="fill: #ffffff"/>
    </g>
    <text style="fill: #262626; font: 9px 'DejaVu Sans'; text-anchor: end" x="738.34159" y="89.937877" transform="rotate(-0 738.34159 89.937877)">-23.30  [-35.80, -11.70]</text>
   </g>
   <g id="LineCollection_3">
    <path d="M 523.56271 147.786204 
L 627.650847 147.786204 
" clip-path="url(#pc474516180)" style="fill: none; stroke: #0072b2; stroke-width: 2"/>
   </g>
   <g id="line2d_30">
    <defs>
     <path id="m7ce8c4a1e4" d="M 0 3.5 
L 0 -3.5 
" style="stroke: #0072b2"/>
    </defs>
    <g clip-path="url(#pc474516180)">
     <use xlink:href="#m7ce8c4a1e4" x="523.56271" y="147.786204" style="fill: #0072b2; stroke: #0072b2"/>
    </g>
   </g>
   <g id="line2d_31">
    <g clip-path="url(#pc474516180)">
     <use xlink:href="#m7ce8c4a1e4" x="627.650847" y="147.786204" style="fill: #0072b2; stroke: #0072b2"/>
    </g>
   </g>
   <g id="text_21">
    <g id="patch_6">
     <path d="M 639.008309 153.13136 
L 739.33159 153.13136 
L 739.33159 142.441048 
L 639.008309 142.441048 
z
" style="fill: #ffffff"/>
    </g>
    <text style="fill: #262626; font: 9px 'DejaVu Sans'; text-anchor: end" x="738.34159" y="150.269642" transform="rotate(-0 738.34159 150.269642)">-4.00  [-10.70, +2.70]</text>
   </g>
   <g id="LineCollection_4">
    <path d="M 539.098253 175.209733 
L 616.775967 175.209733 
" clip-path="url(#pc474516180)" style="fill: none; stroke: #0072b2; stroke-width: 2"/>
   </g>
   <g id="line2d_32">
    <g clip-path="url(#pc474516180)">
     <use xlink:href="#m7ce8c4a1e4" x="539.098253" y="175.209733" style="fill: #0072b2; stroke: #0072b2"/>
    </g>
   </g>
   <g id="line2d_33">
    <g clip-path="url(#pc474516180)">
     <use xlink:href="#m7ce8c4a1e4" x="616.775967" y="175.209733" style="fill: #0072b2; stroke: #0072b2"/>
    </g>
   </g>
   <g id="text_22">
    <g id="patch_7">
     <path d="M 644.734559 180.55489 
L 739.33159 180.55489 
L 739.33159 169.864577 
L 644.734559 169.864577 
z
" style="fill: #ffffff"/>
    </g>
    <text style="fill: #262626; font: 9px 'DejaVu Sans'; text-anchor: end" x="738.34159" y="177.693171" transform="rotate(-0 738.34159 177.693171)">-3.30  [-8.70, +1.30]</text>
   </g>
   <g id="LineCollection_5">
    <path d="M 521.232379 202.633263 
L 614.445636 202.633263 
" clip-path="url(#pc474516180)" style="fill: none; stroke: #0072b2; stroke-width: 2"/>
   </g>
   <g id="line2d_34">
    <g clip-path="url(#pc474516180)">
     <use xlink:href="#m7ce8c4a1e4" x="521.232379" y="202.633263" style="fill: #0072b2; stroke: #0072b2"/>
    </g>
   </g>
   <g id="line2d_35">
    <g clip-path="url(#pc474516180)">
     <use xlink:href="#m7ce8c4a1e4" x="614.445636" y="202.633263" style="fill: #0072b2; stroke: #0072b2"/>
    </g>
   </g>
   <g id="text_23">
    <g id="patch_8">
     <path d="M 639.008309 207.978419 
L 739.33159 207.978419 
L 739.33159 197.288107 
L 639.008309 197.288107 
z
" style="fill: #ffffff"/>
    </g>
    <text style="fill: #262626; font: 9px 'DejaVu Sans'; text-anchor: end" x="738.34159" y="205.1167" transform="rotate(-0 738.34159 205.1167)">-5.00  [-11.00, +1.00]</text>
   </g>
   <g id="LineCollection_6">
    <path d="M 529.00015 230.056792 
L 614.445636 230.056792 
" clip-path="url(#pc474516180)" style="fill: none; stroke: #0072b2; stroke-width: 2"/>
   </g>
   <g id="line2d_36">
    <g clip-path="url(#pc474516180)">
     <use xlink:href="#m7ce8c4a1e4" x="529.00015" y="230.056792" style="fill: #0072b2; stroke: #0072b2"/>
    </g>
   </g>
   <g id="line2d_37">
    <g clip-path="url(#pc474516180)">
     <use xlink:href="#m7ce8c4a1e4" x="614.445636" y="230.056792" style="fill: #0072b2; stroke: #0072b2"/>
    </g>
   </g>
   <g id="text_24">
    <g id="patch_9">
     <path d="M 639.008309 235.401949 
L 739.33159 235.401949 
L 739.33159 224.711636 
L 639.008309 224.711636 
z
" style="fill: #ffffff"/>
    </g>
    <text style="fill: #262626; font: 9px 'DejaVu Sans'; text-anchor: end" x="738.34159" y="232.54023" transform="rotate(-0 738.34159 232.54023)">-4.50  [-10.00, +1.00]</text>
   </g>
   <g id="LineCollection_7">
    <path d="M 593.861041 290.388557 
L 611.260849 290.388557 
" clip-path="url(#pc474516180)" style="fill: none; stroke: #e69f00; stroke-width: 2"/>
   </g>
   <g id="line2d_38">
    <defs>
     <path id="mfe8c5fac6f" d="M 0 3.5 
L 0 -3.5 
" style="stroke: #e69f00"/>
    </defs>
    <g clip-path="url(#pc474516180)">
     <use xlink:href="#mfe8c5fac6f" x="593.861041" y="290.388557" style="fill: #e69f00; stroke: #e69f00"/>
    </g>
   </g>
   <g id="line2d_39">
    <g clip-path="url(#pc474516180)">
     <use xlink:href="#mfe8c5fac6f" x="611.260849" y="290.388557" style="fill: #e69f00; stroke: #e69f00"/>
    </g>
   </g>
   <g id="text_25">
    <g id="patch_10">
     <path d="M 644.734559 295.733713 
L 739.33159 295.733713 
L 739.33159 285.043401 
L 644.734559 285.043401 
z
" style="fill: #ffffff"/>
    </g>
    <text style="fill: #262626; font: 9px 'DejaVu Sans'; text-anchor: end" x="738.34159" y="292.871994" transform="rotate(-0 738.34159 292.871994)">-0.52  [-1.65, +0.59]</text>
   </g>
   <g id="LineCollection_8">
    <path d="M 599.220804 317.812086 
L 618.018811 317.812086 
" clip-path="url(#pc474516180)" style="fill: none; stroke: #e69f00; stroke-width: 2"/>
   </g>
   <g id="line2d_40">
    <g clip-path="url(#pc474516180)">
     <use xlink:href="#mfe8c5fac6f" x="599.220804" y="317.812086" style="fill: #e69f00; stroke: #e69f00"/>
    </g>
   </g>
   <g id="line2d_41">
    <g clip-path="url(#pc474516180)">
     <use xlink:href="#mfe8c5fac6f" x="618.018811" y="317.812086" style="fill: #e69f00; stroke: #e69f00"/>
    </g>
   </g>
   <g id="text_26">
    <g id="patch_11">
     <path d="M 640.439871 323.157243 
L 739.33159 323.157243 
L 739.33159 312.46693 
L 640.439871 312.46693 
z
" style="fill: #ffffff"/>
    </g>
    <text style="fill: #262626; font: 9px 'DejaVu Sans'; text-anchor: end" x="738.34159" y="320.295524" transform="rotate(-0 738.34159 320.295524)">+0.26  [-0.96, +1.46]</text>
   </g>
   <g id="LineCollection_9">
    <path d="M 598.910093 345.235616 
L 619.106299 345.235616 
" clip-path="url(#pc474516180)" style="fill: none; stroke: #e69f00; stroke-width: 2"/>
   </g>
   <g id="line2d_42">
    <g clip-path="url(#pc474516180)">
     <use xlink:href="#mfe8c5fac6f" x="598.910093" y="345.235616" style="fill: #e69f00; stroke: #e69f00"/>
    </g>
   </g>
   <g id="line2d_43">
    <g clip-path="url(#pc474516180)">
     <use xlink:href="#mfe8c5fac6f" x="619.106299" y="345.235616" style="fill: #e69f00; stroke: #e69f00"/>
    </g>
   </g>
   <g id="text_27">
    <g id="patch_12">
     <path d="M 640.439871 350.580772 
L 739.33159 350.580772 
L 739.33159 339.89046 
L 640.439871 339.89046 
z
" style="fill: #ffffff"/>
    </g>
    <text style="fill: #262626; font: 9px 'DejaVu Sans'; text-anchor: end" x="738.34159" y="347.719053" transform="rotate(-0 738.34159 347.719053)">+0.30  [-1.00, +1.60]</text>
   </g>
   <g id="LineCollection_10">
    <path d="M 596.579761 372.659145 
L 616.775967 372.659145 
" clip-path="url(#pc474516180)" style="fill: none; stroke: #e69f00; stroke-width: 2"/>
   </g>
   <g id="line2d_44">
    <g clip-path="url(#pc474516180)">
     <use xlink:href="#mfe8c5fac6f" x="596.579761" y="372.659145" style="fill: #e69f00; stroke: #e69f00"/>
    </g>
   </g>
   <g id="line2d_45">
    <g clip-path="url(#pc474516180)">
     <use xlink:href="#mfe8c5fac6f" x="616.775967" y="372.659145" style="fill: #e69f00; stroke: #e69f00"/>
    </g>
   </g>
   <g id="text_28">
    <g id="patch_13">
     <path d="M 640.439871 378.004301 
L 739.33159 378.004301 
L 739.33159 367.313989 
L 640.439871 367.313989 
z
" style="fill: #ffffff"/>
    </g>
    <text style="fill: #262626; font: 9px 'DejaVu Sans'; text-anchor: end" x="738.34159" y="375.142583" transform="rotate(-0 738.34159 375.142583)">+0.00  [-1.30, +1.30]</text>
   </g>
   <g id="text_29">
    <text style="fill: #009e73; font: 700 9.5px 'DejaVu Sans'; text-anchor: start" x="202.75375" y="36.72091" transform="rotate(-0 202.75375 36.72091)">Fixed v3 behavioral positive control</text>
   </g>
   <g id="text_30">
    <text style="fill: #0072b2; font: 700 9.5px 'DejaVu Sans'; text-anchor: start" x="202.75375" y="124.476204" transform="rotate(-0 202.75375 124.476204)">Archived main math experiment</text>
   </g>
   <g id="text_31">
    <text style="fill: #e69f00; font: 700 9.5px 'DejaVu Sans'; text-anchor: start" x="202.75375" y="267.078557" transform="rotate(-0 202.75375 267.078557)">High-precision and oracle-targeted follow-ups</text>
   </g>
   <g id="text_32">
    <text style="fill: #6b7280; font: 9px 'DejaVu Sans'; text-anchor: start" x="202.75375" y="461.110163" transform="rotate(-0 202.75375 461.110163)">95% paired intervals. Protocols differ; estimates are shown as an evidence map and are not pooled.</text>
   </g>
   <g id="text_33">
    <text style="font: 700 13px 'DejaVu Sans'; text-anchor: start" x="202.75375" y="15.637969" transform="rotate(-0 202.75375 15.637969)">The raw operator has a large two-hop effect, while tested math effects cluster near zero</text>
   </g>
   <g id="line2d_46">
    <defs>
     <path id="m51886533ee" d="M 0 3 
C 0.795609 3 1.55874 2.683901 2.12132 2.12132 
C 2.683901 1.55874 3 0.795609 3 0 
C 3 -0.795609 2.683901 -1.55874 2.12132 -2.12132 
C 1.55874 -2.683901 0.795609 -3 0 -3 
C -0.795609 -3 -1.55874 -2.683901 -2.12132 -2.12132 
C -2.683901 -1.55874 -3 -0.795609 -3 0 
C -3 0.795609 -2.683901 1.55874 -2.12132 2.12132 
C -1.55874 2.683901 -0.795609 3 0 3 
z
" style="stroke: #d55e00"/>
    </defs>
    <g clip-path="url(#pc474516180)">
     <use xlink:href="#m51886533ee" x="354.225293" y="60.03091" style="fill: #d55e00; stroke: #d55e00"/>
    </g>
   </g>
   <g id="line2d_47">
    <g clip-path="url(#pc474516180)">
     <use xlink:href="#m51886533ee" x="425.68879" y="87.454439" style="fill: #d55e00; stroke: #d55e00"/>
    </g>
   </g>
   <g id="line2d_48">
    <defs>
     <path id="m1f91f592d2" d="M 0 3 
C 0.795609 3 1.55874 2.683901 2.12132 2.12132 
C 2.683901 1.55874 3 0.795609 3 0 
C 3 -0.795609 2.683901 -1.55874 2.12132 -2.12132 
C 1.55874 -2.683901 0.795609 -3 0 -3 
C -0.795609 -3 -1.55874 -2.683901 -2.12132 -2.12132 
C -2.683901 -1.55874 -3 -0.795609 -3 0 
C -3 0.795609 -2.683901 1.55874 -2.12132 2.12132 
C -1.55874 2.683901 -0.795609 3 0 3 
z
" style="stroke: #0072b2"/>
    </defs>
    <g clip-path="url(#pc474516180)">
     <use xlink:href="#m1f91f592d2" x="575.606779" y="147.786204" style="fill: #0072b2; stroke: #0072b2"/>
    </g>
   </g>
   <g id="line2d_49">
    <g clip-path="url(#pc474516180)">
     <use xlink:href="#m1f91f592d2" x="581.044219" y="175.209733" style="fill: #0072b2; stroke: #0072b2"/>
    </g>
   </g>
   <g id="line2d_50">
    <g clip-path="url(#pc474516180)">
     <use xlink:href="#m1f91f592d2" x="567.839007" y="202.633263" style="fill: #0072b2; stroke: #0072b2"/>
    </g>
   </g>
   <g id="line2d_51">
    <g clip-path="url(#pc474516180)">
     <use xlink:href="#m1f91f592d2" x="571.722893" y="230.056792" style="fill: #0072b2; stroke: #0072b2"/>
    </g>
   </g>
   <g id="line2d_52">
    <defs>
     <path id="m0c5e3ed08c" d="M 0 3 
C 0.795609 3 1.55874 2.683901 2.12132 2.12132 
C 2.683901 1.55874 3 0.795609 3 0 
C 3 -0.795609 2.683901 -1.55874 2.12132 -2.12132 
C 1.55874 -2.683901 0.795609 -3 0 -3 
C -0.795609 -3 -1.55874 -2.683901 -2.12132 -2.12132 
C -2.683901 -1.55874 -3 -0.795609 -3 0 
C -3 0.795609 -2.683901 1.55874 -2.12132 2.12132 
C -1.55874 2.683901 -0.795609 3 0 3 
z
" style="stroke: #e69f00"/>
    </defs>
    <g clip-path="url(#pc474516180)">
     <use xlink:href="#m0c5e3ed08c" x="602.638623" y="290.388557" style="fill: #e69f00; stroke: #e69f00"/>
    </g>
   </g>
   <g id="line2d_53">
    <g clip-path="url(#pc474516180)">
     <use xlink:href="#m0c5e3ed08c" x="608.697485" y="317.812086" style="fill: #e69f00; stroke: #e69f00"/>
    </g>
   </g>
   <g id="line2d_54">
    <g clip-path="url(#pc474516180)">
     <use xlink:href="#m0c5e3ed08c" x="609.008196" y="345.235616" style="fill: #e69f00; stroke: #e69f00"/>
    </g>
   </g>
   <g id="line2d_55">
    <g clip-path="url(#pc474516180)">
     <use xlink:href="#m0c5e3ed08c" x="606.677864" y="372.659145" style="fill: #e69f00; stroke: #e69f00"/>
    </g>
   </g>
  </g>
 </g>
 <defs>
  <clipPath id="pc474516180">
   <rect x="202.75375" y="21.637969" width="543.744" height="372.96"/>
  </clipPath>
 </defs>
</svg>
